<?xml version="1.0" encoding="utf-8"?>
<!-- Generator: Adobe Illustrator 18.1.1, SVG Export Plug-In . SVG Version: 6.00 Build 0)  -->
<svg version="1.1" id="Layer_1" xmlns="http://www.w3.org/2000/svg" xmlns:xlink="http://www.w3.org/1999/xlink" x="0px" y="0px"
	 viewBox="0 0 792 612" enable-background="new 0 0 792 612" xml:space="preserve">
<g>
	<path fill="#424242" d="M250.1,226.5c0-4.2-2.6-13.5-3.9-14.4c0.7,1.8-0.7,5.5-3.3,5.5c-6.4,0-4.9-7.4,6.4-18.7
		c-14.4,6.6-21.5,12.4-25.6,18.3c-1.4,2-3.4,5-3.8,8.5c-0.4,1.4-0.6,2.9-0.6,4.4c0,5.9,3.2,16.6,17.5,16.6
		C242.8,246.8,250.1,241.1,250.1,226.5"/>
	<path fill="#424242" d="M600.7,227.1v-18.8H636v61.1c4.7-9.6,13.3-14.9,24-14.9c16.9,0,29.1,13,29.1,36.2v28.3h8.2v18.8h-40.5
		v-18.8h7.8v-27.8c0-10.5-4.2-15.7-12.9-15.7c-9.8,0-15.6,5.7-15.6,17.4v26h7.8v18.8h-41.3v-18.8h8.9v-91.9H600.7z M574.1,286.2
		c-2.9-7.1-7.6-11.5-15.1-11.5c-10.5,0-18.2,8.8-18.2,22c0,14.7,7.8,22.4,19.5,22.4c8,0,13.3-4.2,17.1-8.6l15.3,14
		c-7.6,9.4-18.6,15.1-33.1,15.1c-26.4,0-43.8-16.5-43.8-42.7c0-27.9,19.5-42.3,37.5-42.3c10.2,0,17.1,3.6,20.7,9l1.6-7.3H591v29.9
		H574.1z M481.7,290c-0.4-10-6.2-16.3-15.1-16.3c-9.3,0-16,5.5-17.3,16.3H481.7z M469.2,320c8.5,0,14.2-3.3,18.9-7.3l13.1,14.7
		c-7.5,6.9-15.8,12.1-32.5,12.1c-28.5,0-44-17.6-44-42.7c0-24.7,17.8-42.3,41.8-42.3c27.8,0,41.8,21.8,40,50.3h-56.7
		C451.7,314.5,457.7,320,469.2,320 M402.8,319.8c-3.8,0-6.9-1.7-6.9-10v-34.1h19.8v-19.5h-19.8v-28.1c-8-2.7-16.1-5-24.3-6h0v34.1
		H360v19.5h11.5V308c0,25.1,11.3,32,26.9,32c11.3,0,17.8-4.2,21.6-7.5l-8.7-16.8C409.7,317.4,406.2,319.8,402.8,319.8 M261.3,256.3
		H302v19.5h-7.6l7.1,16.3c3.5,7.8,6,18.9,6.2,19.9c0.2-0.6,3.1-12.1,6.7-19.9l7.5-16.3h-8v-19.5h35.3v19.5H342l-28.2,62h-16l-28-62
		h-8.6V256.3z M249.1,319.1h8.9v18.8h-42.4v-18.8h8.9v-43.2h-8.9v-19.5h33.5V319.1z M112.7,245.2v-37.5h90.9v13l-64.2,97.8h42
		l2.5-19.1h18.4v38.5h-94.7v-13.6L172,227h-38.4l-2.5,18.2H112.7z"/>
</g>
</svg>
